HIERARCHY
ROOT Hips
{
	OFFSET	0.00	0.00	0.00
	CHANNELS 6 Xposition Yposition Zposition Zrotation Xrotation Yrotation
	JOINT LeftUpLeg
	{
		OFFSET	 0.126116	-0.065224	 0.014019
		CHANNELS 3 Zrotation Xrotation Yrotation
		JOINT LeftLeg
		{
			OFFSET	 0.000000	 0.569914	 0.000000
			CHANNELS 3 Zrotation Xrotation Yrotation
			JOINT LeftFoot
			{
				OFFSET	 0.000000	 0.544423	 0.000000
				CHANNELS 3 Zrotation Xrotation Yrotation
				JOINT LeftToeBase
				{
					OFFSET	 0.000000	 0.207117	 0.000000
					CHANNELS 3 Zrotation Xrotation Yrotation
					End Site
					{
						OFFSET	 0.000000	 0.207117	 0.000000
					}
				}
			}
		}
	}
	JOINT RightUpLeg
	{
		OFFSET	-0.124023	-0.065224	 0.008373
		CHANNELS 3 Zrotation Xrotation Yrotation
		JOINT RightLeg
		{
			OFFSET	 0.000000	 0.570047	 0.000000
			CHANNELS 3 Zrotation Xrotation Yrotation
			JOINT RightFoot
			{
				OFFSET	 0.000000	 0.544354	 0.000000
				CHANNELS 3 Zrotation Xrotation Yrotation
				JOINT RightToeBase
				{
					OFFSET	 0.000000	 0.207540	 0.000000
					CHANNELS 3 Zrotation Xrotation Yrotation
					End Site
					{
						OFFSET	 0.000000	 0.207540	 0.000000
					}
				}
			}
		}
	}
	JOINT Spine
	{
		OFFSET	 0.000184	 0.117403	 0.007763
		CHANNELS 3 Zrotation Xrotation Yrotation
		JOINT Spine1
		{
			OFFSET	 0.000000	 0.137269	 0.000000
			CHANNELS 3 Zrotation Xrotation Yrotation
			JOINT Spine2
			{
				OFFSET	 0.000000	 0.156879	 0.000000
				CHANNELS 3 Zrotation Xrotation Yrotation
				JOINT LeftShoulder
				{
					OFFSET	 0.080501	 0.160143	 0.002496
					CHANNELS 3 Zrotation Xrotation Yrotation
					JOINT LeftArm
					{
						OFFSET	 0.000000	 0.164363	 0.000000
						CHANNELS 3 Zrotation Xrotation Yrotation
						JOINT LeftForeArm
						{
							OFFSET	 0.000000	 0.364576	 0.000000
							CHANNELS 3 Zrotation Xrotation Yrotation
							JOINT LeftHand
							{
								OFFSET	 0.000000	 0.360812	 0.000000
								CHANNELS 3 Zrotation Xrotation Yrotation
								JOINT LeftHandIndex1
								{
									OFFSET	 0.000000	 0.086006	 0.000000
									CHANNELS 3 Zrotation Xrotation Yrotation
									JOINT LeftHandIndex2
									{
										OFFSET	 0.000000	 0.047237	 0.000000
										CHANNELS 3 Zrotation Xrotation Yrotation
										JOINT LeftHandIndex3
										{
											OFFSET	-0.004284	 0.038165	 0.000551
											CHANNELS 3 Zrotation Xrotation Yrotation
											End Site
											{
												OFFSET	-0.004284	 0.038165	 0.000551
											}
										}
									}
								}
							}
						}
					}
				}
				JOINT Neck
				{
					OFFSET	 0.000000	 0.176489	 0.000000
					CHANNELS 3 Zrotation Xrotation Yrotation
					JOINT Head
					{
						OFFSET	 0.000000	 0.077941	 0.001747
						CHANNELS 3 Zrotation Xrotation Yrotation
						End Site
						{
							OFFSET	 0.000000	 0.077941	 0.001747
						}
					}
				}
				JOINT RightShoulder
				{
					OFFSET	-0.080363	 0.159706	-0.000306
					CHANNELS 3 Zrotation Xrotation Yrotation
					JOINT RightArm
					{
						OFFSET	 0.000000	 0.164196	 0.000000
						CHANNELS 3 Zrotation Xrotation Yrotation
						JOINT RightForeArm
						{
							OFFSET	 0.000000	 0.365611	 0.000000
							CHANNELS 3 Zrotation Xrotation Yrotation
							JOINT RightHand
							{
								OFFSET	 0.000000	 0.360648	 0.000000
								CHANNELS 3 Zrotation Xrotation Yrotation
								JOINT RightHandIndex1
								{
									OFFSET	 0.000000	 0.069977	 0.000000
									CHANNELS 3 Zrotation Xrotation Yrotation
									JOINT RightHandIndex2
									{
										OFFSET	 0.000000	 0.052305	 0.000000
										CHANNELS 3 Zrotation Xrotation Yrotation
										JOINT RightHandIndex3
										{
											OFFSET	 0.009002	 0.042196	 0.000782
											CHANNELS 3 Zrotation Xrotation Yrotation
											End Site
											{
												OFFSET	 0.009002	 0.042196	 0.000782
											}
										}
									}
								}
							}
						}
					}
				}
			}
		}
	}
}
MOTION
Frames:    7
Frame Time: 0.03333334
-0.105118	 1.251337	-0.064029	 9.860544	-6.354229	-160.228400	 173.730900	 32.924760	 31.872750	 12.842370	-39.857860	 14.872350	 13.502050	 80.155380	-20.999470	 1.129684	 26.250020	-2.646953	-173.122000	 8.500913	 13.474710	-1.791813	-22.426240	 10.218590	 1.216850	 68.236900	-4.097564	-1.910021	 35.934760	 3.012216	-6.164522	 6.352775	 22.077760	-7.425362	 10.141640	 7.989851	 4.103452	-9.450574	-7.738187	-103.700600	 2.605636	 93.048230	 29.848150	 48.722430	 6.146516	 21.923560	-1.106841	 0.130516	 15.491380	 3.902093	 49.458620	 3.895643	 55.099950	-2.236969	-8.789270	 61.512500	 9.100076	 6.615357	 34.451570	 0.048515	 4.067574	-11.890330	-3.869003	 4.636110	-9.477219	-12.633530	 103.548100	 27.235180	-97.893980	-34.754890	 42.095020	-9.768485	-29.500010	-1.109918	-0.233655	 21.236410	-11.866740	-27.959650	-4.899847	 13.070800	-0.626270	 14.086490	 36.511480	-8.857838	-8.484263	 29.653730	-1.617006
-0.109182	 1.252645	-0.061161	 8.188170	-5.395956	-163.825700	 174.334500	 30.673460	 28.026820	 12.580830	-39.288510	 14.286400	 12.970020	 79.392730	-19.888720	 1.135144	 26.324420	-2.649081	-174.375900	 8.176619	 10.621780	-1.942867	-24.107580	 11.020330	 4.605725	 70.226030	-7.439632	-1.832290	 35.054030	 2.970518	-5.438491	 6.522565	 19.071850	-6.295790	 10.004930	 6.921169	 3.004636	-9.234229	-3.930780	-104.127200	 2.478772	 92.903020	 15.640630	 52.999880	 12.595000	 23.809150	-1.196690	 0.168444	 16.335790	-3.508104	 41.016640	 3.888451	 55.171280	-2.233230	-8.753273	 61.362270	 9.051589	 6.621922	 34.591010	 0.047776	 4.120173	-10.936100	-3.525642	 3.433774	-8.992274	-10.189430	 105.183700	 25.925340	-97.954670	-19.286920	 45.027130	-15.124690	-31.229720	-1.168581	-0.268054	 0.480060	-18.638410	-45.389450	-4.841216	 12.767380	-0.603249	 14.062630	 36.365320	-8.812285	-8.486146	 29.496800	-1.605859
-0.103465	 1.253415	-0.055883	 6.183624	-3.702786	-168.788600	 175.728100	 27.648690	 22.945680	 12.248720	-38.551080	 13.563020	 11.974860	 78.503290	-18.682460	 1.148953	 26.512140	-2.654491	-175.296800	 7.871053	 6.538019	-2.156615	-26.413150	 11.255390	 7.890662	 72.067990	-10.551290	-1.767057	 34.300490	 2.936344	-4.533950	 6.949912	 14.474780	-3.770044	 8.753612	 4.771183	 1.273968	-8.031645	 0.262448	-104.529100	 2.541094	 92.779830	-0.250744	 55.027690	 22.037090	 29.478140	-1.458650	 0.299904	 12.893820	-12.298630	 28.780330	 3.728647	 54.116520	-2.104517	-8.474433	 60.132220	 8.670294	 6.585622	 33.816440	 0.051622	 4.117759	-9.887560	-3.050435	 2.268090	-8.358582	-7.064027	 107.192300	 24.218160	-97.994900	-3.827661	 46.165490	-20.848740	-32.341290	-1.205770	-0.291105	-19.092050	-20.111410	-59.666350	-4.556816	 11.695240	-0.458352	 13.827700	 34.859680	-8.352422	-8.504958	 27.693010	-1.479372
-0.092109	 1.252995	-0.051278	 4.716260	-2.486073	-172.999000	 177.060000	 25.442670	 18.657490	 11.968310	-37.915690	 13.128480	 11.399650	 77.939190	-18.190340	 1.149078	 26.513870	-2.654539	-175.448800	 7.132422	 3.286354	-2.175892	-26.616740	 11.276870	 10.544860	 73.745400	-13.132100	-1.587155	 32.153660	 2.846121	-3.854771	 7.109059	 10.294230	-1.547442	 7.697976	 3.130554	-0.353635	-6.962165	 3.730116	-105.034900	 2.929887	 92.757270	-7.297122	 54.075820	 29.160540	 30.601110	-1.508944	 0.329045	 11.246860	-19.260950	 23.209030	 3.362511	 50.967300	-1.811255	-7.880409	 57.031430	 7.815633	 6.472016	 31.339750	 0.059848	 4.101849	-9.252968	-2.601064	 1.607574	-7.663403	-4.121110	 108.893900	 22.624980	-97.922370	 6.673889	 45.424570	-26.630690	-33.214990	-1.234675	-0.309676	-23.498740	-27.219340	-61.736970	-3.919039	 9.504741	-0.101789	 13.322530	 31.117450	-7.275341	-8.532041	 23.112350	-1.169272
-0.077099	 1.253563	-0.045674	 3.551101	-1.489126	-176.917700	 178.666600	 23.350860	 14.615620	 11.468560	-36.753820	 12.554580	 9.963454	 77.166510	-16.947650	 1.149197	 26.515540	-2.654585	-175.340100	 6.447611	 0.211685	-2.133309	-26.166080	 11.328370	 12.432480	 75.002550	-15.323220	-1.421658	 30.089220	 2.768620	-3.105237	 7.029294	 6.001671	 1.107483	 6.945801	 1.223847	-2.108237	-6.072404	 6.733402	-105.521300	 3.303891	 92.738840	-12.062020	 52.993250	 34.257720	 31.720100	-1.558470	 0.358893	 7.763130	-23.960520	 16.838760	 3.054677	 47.938290	-1.574843	-7.426150	 54.046170	 7.106798	 6.365824	 28.958340	 0.062273	 4.081829	-8.642928	-2.169557	 0.988438	-7.032925	-1.362289	 110.514300	 21.095610	-97.805580	 13.004820	 43.538290	-29.027210	-30.612420	-1.147851	-0.255589	-28.949620	-33.739120	-64.966740	-3.296266	 7.402359	 0.262309	 12.928810	 27.512490	-6.311466	-8.532653	 18.707810	-0.882073
-0.060020	 1.255327	-0.037898	 2.969987	-1.030755	-179.691000	-179.444200	 21.949220	 11.557720	 10.857790	-35.281520	 10.838520	 2.602827	 76.294940	-9.908054	 1.149626	 26.521400	-2.654755	-174.765700	 6.473986	-2.428096	-2.087371	-25.675910	 11.093030	 13.095800	 75.150510	-15.427430	-1.352917	 29.206610	 2.738055	-2.163377	 6.720394	 2.310179	 2.931856	 6.767904	-0.284988	-3.374165	-5.849125	 9.197183	-106.236500	 3.687772	 92.730700	-12.896320	 50.954300	 35.235730	 34.616810	-1.683791	 0.440877	 1.827553	-33.069370	 6.901121	 2.290389	 39.477120	-1.044549	-6.547478	 45.355260	 5.461751	 6.067449	 21.997700	 0.041860	 4.026995	-8.275184	-1.787260	 0.498622	-6.780530	 0.898157	 112.302400	 19.544390	-97.674470	 15.524870	 43.351310	-28.221200	-28.563930	-1.077753	-0.215794	-32.917190	-33.628210	-67.302350	-2.888882	 6.014365	 0.524040	 12.711650	 25.121900	-5.704594	-8.521365	 15.953890	-0.706058
-0.041486	 1.256805	-0.028332	 2.721324	-0.770638	 178.338000	-177.423300	 20.938920	 9.294722	 10.298370	-33.881570	 8.424956	-7.487572	 75.182140	-0.298490	 1.150220	 26.529500	-2.654991	-173.863400	 6.818674	-4.631842	-2.050745	-25.282260	 10.678150	 12.991030	 74.663990	-14.321560	-1.346519	 29.123800	 2.735257	-1.184419	 6.465583	-0.654652	 4.134974	 6.780312	-1.399538	-4.205719	-5.934905	 11.021540	-107.048300	 4.052379	 92.732350	-9.240409	 48.279060	 31.764370	 36.275710	-1.753677	 0.490662	-8.126628	-42.051080	-6.606411	 1.496544	 28.047370	-0.600675	-5.991225	 33.516620	 3.780897	 5.676029	 12.560040	-0.043722	 3.955099	-8.084110	-1.460886	 0.125468	-6.767528	 2.660980	 114.074100	 18.082880	-97.524310	 17.746320	 45.769520	-27.449110	-28.303530	-1.068726	-0.210880	-33.021790	-29.923810	-68.368550	-2.646332	 5.164906	 0.697663	 12.593870	 23.650720	-5.341980	-8.511306	 14.413490	-0.608372
